<mxfile host="app.diagrams.net" agent="Mozilla/5.0 (Windows NT 10.0; Win64; x64) AppleWebKit/537.36 (KHTML, like Gecko) Chrome/135.0.0.0 Safari/537.36 Edg/135.0.0.0" version="26.2.12">
  <diagram name="第 1 页" id="GWn87meAoaP8PtY5U3S1">
    <mxGraphModel dx="1420" dy="965" grid="1" gridSize="10" guides="1" tooltips="1" connect="1" arrows="1" fold="1" page="1" pageScale="1" pageWidth="827" pageHeight="1169" math="0" shadow="0">
      <root>
        <mxCell id="0" />
        <mxCell id="1" parent="0" />
        <mxCell id="xP_yPdAVMFIrfx9YmtCY-2" value="" style="rounded=1;arcSize=5;whiteSpace=wrap;html=1;fillColor=#d5e8d4;strokeColor=light-dark(#517f31, #446e2c);strokeWidth=2;dashed=1;dashPattern=8 8;movable=1;resizable=1;rotatable=1;deletable=1;editable=1;locked=0;connectable=1;" vertex="1" parent="1">
          <mxGeometry x="242" y="408" width="368" height="189" as="geometry" />
        </mxCell>
        <mxCell id="xP_yPdAVMFIrfx9YmtCY-3" value="" style="rounded=1;arcSize=5;whiteSpace=wrap;html=1;fillColor=light-dark(#deebf7, #1d293b);strokeColor=light-dark(#2a77bc, #5c79a3);strokeWidth=2;dashed=1;dashPattern=8 8;movable=1;resizable=1;rotatable=1;deletable=1;editable=1;locked=0;connectable=1;" vertex="1" parent="1">
          <mxGeometry x="242" y="220" width="448" height="170" as="geometry" />
        </mxCell>
        <mxCell id="xP_yPdAVMFIrfx9YmtCY-4" style="edgeStyle=orthogonalEdgeStyle;rounded=1;orthogonalLoop=1;jettySize=auto;html=1;fillColor=#1ba1e2;strokeColor=light-dark(#164673, #51afe7);curved=0;textShadow=1;strokeWidth=2;movable=1;resizable=1;rotatable=1;deletable=1;editable=1;locked=0;connectable=1;" edge="1" parent="1">
          <mxGeometry relative="1" as="geometry">
            <mxPoint x="368" y="314" as="sourcePoint" />
            <mxPoint x="404.27" y="314" as="targetPoint" />
          </mxGeometry>
        </mxCell>
        <mxCell id="xP_yPdAVMFIrfx9YmtCY-5" value="" style="group;strokeWidth=24;movable=1;resizable=1;rotatable=1;deletable=1;editable=1;locked=0;connectable=1;" vertex="1" connectable="0" parent="1">
          <mxGeometry x="256" y="475.16" width="117.0047776127821" height="109.683573999841" as="geometry" />
        </mxCell>
        <mxCell id="xP_yPdAVMFIrfx9YmtCY-6" value="&lt;span style=&quot;color: rgba(0, 0, 0, 0); font-family: monospace; font-size: 0px; text-align: start;&quot;&gt;%3CmxGraphModel%3E%3Croot%3E%3CmxCell%20id%3D%220%22%2F%3E%3CmxCell%20id%3D%221%22%20parent%3D%220%22%2F%3E%3CmxCell%20id%3D%222%22%20value%3D%22%26lt%3Bb%26gt%3BEnv.%20Prompt%26lt%3B%2Fb%26gt%3B%22%20style%3D%22text%3Bhtml%3D1%3Balign%3Dcenter%3BverticalAlign%3Dmiddle%3Bresizable%3D0%3Bpoints%3D%5B%5D%3Bautosize%3D1%3BstrokeColor%3Dnone%3BfillColor%3Dnone%3B%22%20vertex%3D%221%22%20parent%3D%221%22%3E%3CmxGeometry%20x%3D%22235%22%20y%3D%22265%22%20width%3D%2290%22%20height%3D%2230%22%20as%3D%22geometry%22%2F%3E%3C%2FmxCell%3E%3C%2Froot%3E%3C%2FmxGraphModel%3E&lt;/span&gt;" style="text;html=1;align=center;verticalAlign=middle;resizable=1;points=[];autosize=1;strokeColor=none;fillColor=none;fontStyle=4;movable=1;rotatable=1;deletable=1;editable=1;locked=0;connectable=1;" vertex="1" parent="xP_yPdAVMFIrfx9YmtCY-5">
          <mxGeometry x="32.43456943289952" y="70.99090233733783" width="20" height="30" as="geometry" />
        </mxCell>
        <mxCell id="xP_yPdAVMFIrfx9YmtCY-7" value="&lt;b&gt;&lt;font style=&quot;font-size: 10px;&quot; face=&quot;Times New Roman&quot;&gt;行为目标提示（Prompt）&lt;/font&gt;&lt;/b&gt;" style="text;html=1;align=center;verticalAlign=middle;resizable=1;points=[];autosize=1;strokeColor=none;fillColor=none;movable=1;rotatable=1;deletable=1;editable=1;locked=0;connectable=1;" vertex="1" parent="xP_yPdAVMFIrfx9YmtCY-5">
          <mxGeometry x="-13.99522238721789" y="83.683573999841" width="131" height="26" as="geometry" />
        </mxCell>
        <mxCell id="xP_yPdAVMFIrfx9YmtCY-8" value="&lt;div style=&quot;color: rgb(51, 51, 51);&quot;&gt;&lt;span style=&quot;background-color: transparent; color: light-dark(rgb(51, 51, 51), rgb(193, 193, 193));&quot;&gt;&lt;font style=&quot;font-size: 10px;&quot; face=&quot;Times New Roman&quot;&gt;&amp;nbsp; Object List:&lt;/font&gt;&lt;/span&gt;&lt;/div&gt;&lt;div style=&quot;color: rgb(51, 51, 51);&quot;&gt;&lt;font style=&quot;font-size: 10px;&quot; face=&quot;Times New Roman&quot;&gt;&amp;nbsp; Action history:&lt;/font&gt;&lt;/div&gt;&lt;div style=&quot;color: rgb(51, 51, 51);&quot;&gt;&lt;font style=&quot;font-size: 10px;&quot; face=&quot;Times New Roman&quot;&gt;&amp;nbsp;&amp;nbsp;&lt;/font&gt;&lt;/div&gt;" style="strokeWidth=1.5;html=1;shape=mxgraph.flowchart.multi-document;whiteSpace=wrap;align=left;fillColor=light-dark(#e7e6e6, #ededed);movable=1;resizable=1;rotatable=1;deletable=1;editable=1;locked=0;connectable=1;" vertex="1" parent="xP_yPdAVMFIrfx9YmtCY-5">
          <mxGeometry x="-3.599880783211925" y="5.2822173063076505" width="103.59656920576539" height="76.40155547164571" as="geometry" />
        </mxCell>
        <mxCell id="xP_yPdAVMFIrfx9YmtCY-9" value="" style="group;align=left;movable=1;resizable=1;rotatable=1;deletable=1;editable=1;locked=0;connectable=1;" vertex="1" connectable="0" parent="1">
          <mxGeometry x="259" y="253" width="111.27" height="138" as="geometry" />
        </mxCell>
        <mxCell id="xP_yPdAVMFIrfx9YmtCY-10" value="&lt;b&gt;&lt;font style=&quot;font-size: 10px;&quot; face=&quot;Times New Roman&quot;&gt;环境提示（Prompt）&lt;/font&gt;&lt;/b&gt;" style="text;html=1;align=center;verticalAlign=middle;resizable=1;points=[];autosize=1;strokeColor=none;fillColor=none;movable=1;rotatable=1;deletable=1;editable=1;locked=0;connectable=1;" vertex="1" parent="xP_yPdAVMFIrfx9YmtCY-9">
          <mxGeometry x="-4.816883116883116" y="106.59310344827587" width="111" height="26" as="geometry" />
        </mxCell>
        <mxCell id="xP_yPdAVMFIrfx9YmtCY-11" value="&lt;div style=&quot;color: rgb(51, 51, 51);&quot;&gt;&lt;span style=&quot;background-color: transparent; color: light-dark(rgb(51, 51, 51), rgb(193, 193, 193));&quot;&gt;&lt;font style=&quot;font-size: 10px;&quot; face=&quot;Times New Roman&quot;&gt;&amp;nbsp; User states:&lt;/font&gt;&lt;/span&gt;&lt;/div&gt;&lt;div style=&quot;color: rgb(51, 51, 51);&quot;&gt;&lt;span style=&quot;background-color: transparent; color: light-dark(rgb(51, 51, 51), rgb(193, 193, 193));&quot;&gt;&lt;font style=&quot;font-size: 10px;&quot; face=&quot;Times New Roman&quot;&gt;&amp;nbsp; Env.info.:&lt;/font&gt;&lt;/span&gt;&lt;/div&gt;&lt;div style=&quot;color: rgb(51, 51, 51);&quot;&gt;&lt;font style=&quot;font-size: 10px;&quot; face=&quot;Times New Roman&quot;&gt;&amp;nbsp; Intention history:&lt;/font&gt;&lt;/div&gt;&lt;div style=&quot;color: rgb(51, 51, 51);&quot;&gt;&lt;font style=&quot;font-size: 10px;&quot; face=&quot;Times New Roman&quot;&gt;&amp;nbsp; ...&lt;/font&gt;&lt;/div&gt;" style="strokeWidth=1.5;html=1;shape=mxgraph.flowchart.multi-document;whiteSpace=wrap;align=left;fillColor=light-dark(#e7e6e6, #ededed);movable=1;resizable=1;rotatable=1;deletable=1;editable=1;locked=0;connectable=1;" vertex="1" parent="xP_yPdAVMFIrfx9YmtCY-9">
          <mxGeometry x="-5" y="20" width="103" height="84.69" as="geometry" />
        </mxCell>
        <mxCell id="xP_yPdAVMFIrfx9YmtCY-17" value="&lt;font style=&quot;font-size: 15px;&quot; face=&quot;Times New Roman&quot;&gt;意图推理模块&lt;/font&gt;" style="text;html=1;align=center;verticalAlign=middle;resizable=1;points=[];autosize=1;strokeColor=none;fillColor=none;fontColor=light-dark(#1c4c77, #a1cdf9);fontStyle=1;movable=1;rotatable=1;deletable=1;editable=1;locked=0;connectable=1;" vertex="1" parent="1">
          <mxGeometry x="242" y="220" width="108" height="30" as="geometry" />
        </mxCell>
        <mxCell id="xP_yPdAVMFIrfx9YmtCY-18" value="&lt;font face=&quot;Times New Roman&quot;&gt;&lt;span style=&quot;font-size: 15px;&quot;&gt;目标预测模块&lt;/span&gt;&lt;/font&gt;" style="text;html=1;align=center;verticalAlign=middle;resizable=1;points=[];autosize=1;strokeColor=none;fillColor=none;fontColor=light-dark(#548235, #69c195);fontStyle=1;movable=1;rotatable=1;deletable=1;editable=1;locked=0;connectable=1;" vertex="1" parent="1">
          <mxGeometry x="239" y="408" width="108" height="30" as="geometry" />
        </mxCell>
        <mxCell id="xP_yPdAVMFIrfx9YmtCY-19" value="" style="shape=flexArrow;endArrow=classic;html=1;rounded=0;fillColor=light-dark(#5999d9, #2566a8);strokeColor=light-dark(#7193c2, #ededed);width=9.142857142857142;endSize=4.9314285714285715;endWidth=10.775510204081632;movable=1;resizable=1;rotatable=1;deletable=1;editable=1;locked=0;connectable=1;" edge="1" parent="1">
          <mxGeometry width="50" height="50" relative="1" as="geometry">
            <mxPoint x="386" y="360" as="sourcePoint" />
            <mxPoint x="386.4968807627246" y="415.00054530582565" as="targetPoint" />
          </mxGeometry>
        </mxCell>
        <mxCell id="xP_yPdAVMFIrfx9YmtCY-20" value="&lt;span style=&quot;color: rgb(0, 0, 0); font-style: normal; font-variant-ligatures: normal; font-variant-caps: normal; font-weight: 400; letter-spacing: normal; orphans: 2; text-align: center; text-indent: 0px; text-transform: none; widows: 2; word-spacing: 0px; -webkit-text-stroke-width: 0px; white-space: nowrap; background-color: rgb(251, 251, 251); text-decoration-thickness: initial; text-decoration-style: initial; text-decoration-color: initial; float: none; display: inline !important;&quot;&gt;&lt;font style=&quot;font-size: 10px;&quot; face=&quot;Times New Roman&quot;&gt;并&lt;/font&gt;&lt;/span&gt;&lt;div&gt;&lt;span style=&quot;color: rgb(0, 0, 0); font-style: normal; font-variant-ligatures: normal; font-variant-caps: normal; font-weight: 400; letter-spacing: normal; orphans: 2; text-align: center; text-indent: 0px; text-transform: none; widows: 2; word-spacing: 0px; -webkit-text-stroke-width: 0px; white-space: nowrap; background-color: rgb(251, 251, 251); text-decoration-thickness: initial; text-decoration-style: initial; text-decoration-color: initial; float: none; display: inline !important;&quot;&gt;&lt;font style=&quot;font-size: 10px;&quot; face=&quot;Times New Roman&quot;&gt;行&lt;/font&gt;&lt;/span&gt;&lt;/div&gt;&lt;div&gt;&lt;span style=&quot;color: rgb(0, 0, 0); font-style: normal; font-variant-ligatures: normal; font-variant-caps: normal; font-weight: 400; letter-spacing: normal; orphans: 2; text-align: center; text-indent: 0px; text-transform: none; widows: 2; word-spacing: 0px; -webkit-text-stroke-width: 0px; white-space: nowrap; background-color: rgb(251, 251, 251); text-decoration-thickness: initial; text-decoration-style: initial; text-decoration-color: initial; float: none; display: inline !important;&quot;&gt;&lt;font style=&quot;font-size: 10px;&quot; face=&quot;Times New Roman&quot;&gt;推&lt;/font&gt;&lt;/span&gt;&lt;/div&gt;&lt;div&gt;&lt;span style=&quot;color: rgb(0, 0, 0); font-style: normal; font-variant-ligatures: normal; font-variant-caps: normal; font-weight: 400; letter-spacing: normal; orphans: 2; text-align: center; text-indent: 0px; text-transform: none; widows: 2; word-spacing: 0px; -webkit-text-stroke-width: 0px; white-space: nowrap; background-color: rgb(251, 251, 251); text-decoration-thickness: initial; text-decoration-style: initial; text-decoration-color: initial; float: none; display: inline !important;&quot;&gt;&lt;font style=&quot;font-size: 10px;&quot; face=&quot;Times New Roman&quot;&gt;理&lt;/font&gt;&lt;/span&gt;&lt;/div&gt;" style="text;whiteSpace=wrap;html=1;movable=1;resizable=1;rotatable=1;deletable=1;editable=1;locked=0;connectable=1;" vertex="1" parent="1">
          <mxGeometry x="208" y="373" width="120" height="40" as="geometry" />
        </mxCell>
        <mxCell id="xP_yPdAVMFIrfx9YmtCY-21" value="" style="shape=image;html=1;verticalAlign=top;verticalLabelPosition=bottom;labelBackgroundColor=#ffffff;imageAspect=0;aspect=fixed;image=https://cdn0.iconfinder.com/data/icons/phosphor-light-vol-1/256/brain-light-128.png;imageBackground=none;imageBorder=none;movable=1;resizable=1;rotatable=1;deletable=1;editable=1;locked=0;connectable=1;" vertex="1" parent="1">
          <mxGeometry x="411" y="285" width="67" height="67" as="geometry" />
        </mxCell>
        <mxCell id="xP_yPdAVMFIrfx9YmtCY-22" value="&lt;div style=&quot;text-align: center; line-height: 100%;&quot;&gt;&lt;span style=&quot;background-color: transparent; color: light-dark(rgb(0, 0, 0), rgb(255, 255, 255)); font-family: &amp;quot;Times New Roman&amp;quot;;&quot;&gt;&lt;font style=&quot;font-size: 10px;&quot;&gt;&amp;nbsp; &amp;nbsp; &lt;/font&gt;&lt;/span&gt;&lt;span style=&quot;background-color: transparent; color: light-dark(rgb(0, 0, 0), rgb(255, 255, 255)); font-family: &amp;quot;Times New Roman&amp;quot;; font-size: 10px;&quot;&gt;Human wants to have coffee&lt;/span&gt;&lt;/div&gt;&lt;div style=&quot;line-height: 100%;&quot;&gt;&lt;font style=&quot;font-size: 10px;&quot;&gt;&lt;span style=&quot;font-family: &amp;quot;Times New Roman&amp;quot;; background-color: transparent; color: light-dark(rgb(0, 0, 0), rgb(255, 255, 255));&quot;&gt;&amp;nbsp; &amp;nbsp; -Yes&lt;/span&gt;&lt;/font&gt;&lt;/div&gt;&lt;div style=&quot;line-height: 100%;&quot;&gt;&lt;font face=&quot;Times New Roman&quot;&gt;&lt;span style=&quot;font-size: 10px;&quot;&gt;&amp;nbsp; &amp;nbsp; -No&lt;/span&gt;&lt;/font&gt;&lt;/div&gt;" style="shape=note;whiteSpace=wrap;html=1;backgroundOutline=1;darkOpacity=0.05;align=left;size=9;fillColor=light-dark(#bdd7ee, #ededed);movable=1;resizable=1;rotatable=1;deletable=1;editable=1;locked=0;connectable=1;" vertex="1" parent="1">
          <mxGeometry x="538" y="310" width="138" height="55" as="geometry" />
        </mxCell>
        <mxCell id="xP_yPdAVMFIrfx9YmtCY-23" style="edgeStyle=orthogonalEdgeStyle;rounded=1;orthogonalLoop=1;jettySize=auto;html=1;fillColor=#1ba1e2;strokeColor=light-dark(#164673, #51afe7);curved=0;entryX=0.001;entryY=0.716;entryDx=0;entryDy=0;entryPerimeter=0;strokeWidth=2;movable=1;resizable=1;rotatable=1;deletable=1;editable=1;locked=0;connectable=1;" edge="1" parent="1">
          <mxGeometry relative="1" as="geometry">
            <mxPoint x="481" y="315" as="sourcePoint" />
            <mxPoint x="538.1380000000001" y="352.38" as="targetPoint" />
            <Array as="points">
              <mxPoint x="506" y="315" />
              <mxPoint x="506" y="352" />
            </Array>
          </mxGeometry>
        </mxCell>
        <mxCell id="xP_yPdAVMFIrfx9YmtCY-24" value="" style="group;movable=1;resizable=1;rotatable=1;deletable=1;editable=1;locked=0;connectable=1;" vertex="1" connectable="0" parent="1">
          <mxGeometry x="509.9971428571427" y="495" width="100" height="93.00037037037032" as="geometry" />
        </mxCell>
        <mxCell id="xP_yPdAVMFIrfx9YmtCY-25" value="" style="html=1;verticalLabelPosition=bottom;align=center;labelBackgroundColor=#ffffff;verticalAlign=top;strokeWidth=4;strokeColor=light-dark(#548235, #32a0ff);shadow=0;dashed=0;shape=mxgraph.ios7.icons.pie_chart;fillColor=light-dark(#d5e8d4, #ededed);fontStyle=0;movable=1;resizable=1;rotatable=1;deletable=1;editable=1;locked=0;connectable=1;" vertex="1" parent="xP_yPdAVMFIrfx9YmtCY-24">
          <mxGeometry x="25.002857142857234" width="50" height="50" as="geometry" />
        </mxCell>
        <mxCell id="xP_yPdAVMFIrfx9YmtCY-26" value="&lt;b&gt;&lt;font style=&quot;font-size: 10px;&quot; face=&quot;Times New Roman&quot;&gt;交互物体&lt;/font&gt;&lt;/b&gt;&lt;div&gt;&lt;b&gt;&lt;font style=&quot;font-size: 10px;&quot; face=&quot;Times New Roman&quot;&gt;概率列表&lt;/font&gt;&lt;/b&gt;&lt;/div&gt;" style="text;html=1;align=center;verticalAlign=middle;resizable=1;points=[];autosize=1;strokeColor=none;fillColor=none;fontStyle=0;movable=1;rotatable=1;deletable=1;editable=1;locked=0;connectable=1;" vertex="1" parent="xP_yPdAVMFIrfx9YmtCY-24">
          <mxGeometry x="21" y="54.50037037037032" width="58" height="41" as="geometry" />
        </mxCell>
        <mxCell id="xP_yPdAVMFIrfx9YmtCY-28" value="&lt;font style=&quot;color: light-dark(rgb(109, 81, 0), rgb(237, 237, 237));&quot;&gt;&lt;b style=&quot;&quot;&gt;用&lt;/b&gt;&lt;/font&gt;&lt;div&gt;&lt;font style=&quot;color: light-dark(rgb(109, 81, 0), rgb(237, 237, 237));&quot;&gt;&lt;b&gt;户&lt;/b&gt;&lt;/font&gt;&lt;/div&gt;&lt;div&gt;&lt;font style=&quot;color: light-dark(rgb(109, 81, 0), rgb(237, 237, 237));&quot;&gt;&lt;b&gt;行&lt;/b&gt;&lt;/font&gt;&lt;/div&gt;&lt;div&gt;&lt;font style=&quot;color: light-dark(rgb(109, 81, 0), rgb(237, 237, 237));&quot;&gt;&lt;b&gt;为&lt;/b&gt;&lt;/font&gt;&lt;/div&gt;&lt;div&gt;&lt;font style=&quot;color: light-dark(rgb(109, 81, 0), rgb(237, 237, 237));&quot;&gt;&lt;b&gt;目&lt;/b&gt;&lt;/font&gt;&lt;/div&gt;&lt;div&gt;&lt;font style=&quot;color: light-dark(rgb(109, 81, 0), rgb(237, 237, 237));&quot;&gt;&lt;b style=&quot;&quot;&gt;标&lt;/b&gt;&lt;/font&gt;&lt;/div&gt;" style="rounded=1;arcSize=5;whiteSpace=wrap;html=1;fillColor=#fff2cc;strokeColor=light-dark(#6D5100,#000000);strokeWidth=2;align=center;verticalAlign=middle;fontFamily=Helvetica;fontSize=12;fontColor=default;movable=1;resizable=1;rotatable=1;deletable=1;editable=1;locked=0;connectable=1;" vertex="1" parent="1">
          <mxGeometry x="650" y="505" width="35" height="92" as="geometry" />
        </mxCell>
        <mxCell id="xP_yPdAVMFIrfx9YmtCY-30" value="" style="shape=flexArrow;endArrow=classic;html=1;rounded=0;fillColor=light-dark(#517f31, #2566a8);strokeColor=light-dark(#517f31, #ededed);endWidth=8.045977011494253;endSize=4.83448275862069;movable=1;resizable=1;rotatable=1;deletable=1;editable=1;locked=0;connectable=1;" edge="1" parent="1">
          <mxGeometry width="50" height="50" relative="1" as="geometry">
            <mxPoint x="599" y="553" as="sourcePoint" />
            <mxPoint x="649" y="553" as="targetPoint" />
            <Array as="points">
              <mxPoint x="609" y="553" />
            </Array>
          </mxGeometry>
        </mxCell>
        <mxCell id="xP_yPdAVMFIrfx9YmtCY-33" value="" style="group;movable=1;resizable=1;rotatable=1;deletable=1;editable=1;locked=0;connectable=1;" vertex="1" connectable="0" parent="1">
          <mxGeometry x="410.1" y="469.31999999999994" width="108.89999999999998" height="121.37013422818792" as="geometry" />
        </mxCell>
        <mxCell id="xP_yPdAVMFIrfx9YmtCY-34" value="" style="group;movable=1;resizable=1;rotatable=1;deletable=1;editable=1;locked=0;connectable=1;" vertex="1" connectable="0" parent="xP_yPdAVMFIrfx9YmtCY-33">
          <mxGeometry width="108.89999999999998" height="121.37013422818792" as="geometry" />
        </mxCell>
        <mxCell id="xP_yPdAVMFIrfx9YmtCY-35" value="" style="group;fontStyle=0;strokeWidth=2;movable=1;resizable=1;rotatable=1;deletable=1;editable=1;locked=0;connectable=1;" vertex="1" connectable="0" parent="xP_yPdAVMFIrfx9YmtCY-34">
          <mxGeometry width="108.89999999999998" height="121.37013422818792" as="geometry" />
        </mxCell>
        <mxCell id="xP_yPdAVMFIrfx9YmtCY-36" value="&lt;b&gt;&lt;font style=&quot;font-size: 10px;&quot; face=&quot;Times New Roman&quot;&gt;轻量大语言模型&lt;/font&gt;&lt;/b&gt;&lt;div&gt;&lt;b&gt;&lt;font style=&quot;font-size: 10px;&quot; face=&quot;Times New Roman&quot;&gt;GPT-4o-mini&lt;/font&gt;&lt;/b&gt;&lt;/div&gt;" style="text;html=1;align=center;verticalAlign=middle;resizable=1;points=[];autosize=1;strokeColor=none;fillColor=none;movable=1;rotatable=1;deletable=1;editable=1;locked=0;connectable=1;" vertex="1" parent="xP_yPdAVMFIrfx9YmtCY-35">
          <mxGeometry x="-0.6295410212277694" y="80.37013422818792" width="88" height="41" as="geometry" />
        </mxCell>
        <mxCell id="xP_yPdAVMFIrfx9YmtCY-37" style="edgeStyle=orthogonalEdgeStyle;rounded=1;orthogonalLoop=1;jettySize=auto;html=1;fillColor=#1ba1e2;strokeColor=light-dark(#385723, #28ab6a);curved=0;strokeWidth=2;movable=1;resizable=1;rotatable=1;deletable=1;editable=1;locked=0;connectable=1;" edge="1" parent="xP_yPdAVMFIrfx9YmtCY-35">
          <mxGeometry relative="1" as="geometry">
            <mxPoint x="80.89999999999998" y="53.710000000000036" as="sourcePoint" />
            <mxPoint x="116.89999999999998" y="53.710000000000036" as="targetPoint" />
            <Array as="points">
              <mxPoint x="117.26999999999998" y="53.92000000000007" />
              <mxPoint x="117.26999999999998" y="53.92000000000007" />
            </Array>
          </mxGeometry>
        </mxCell>
        <mxCell id="xP_yPdAVMFIrfx9YmtCY-38" value="" style="shape=image;html=1;verticalAlign=top;verticalLabelPosition=bottom;labelBackgroundColor=#ffffff;imageAspect=0;aspect=fixed;image=https://cdn0.iconfinder.com/data/icons/phosphor-light-vol-1/256/brain-light-128.png;imageBackground=none;imageBorder=none;movable=1;resizable=1;rotatable=1;deletable=1;editable=1;locked=0;connectable=1;" vertex="1" parent="xP_yPdAVMFIrfx9YmtCY-33">
          <mxGeometry x="10" y="17.37" width="67.06" height="67.06" as="geometry" />
        </mxCell>
        <mxCell id="xP_yPdAVMFIrfx9YmtCY-39" style="edgeStyle=orthogonalEdgeStyle;rounded=1;orthogonalLoop=1;jettySize=auto;html=1;fillColor=#1ba1e2;strokeColor=light-dark(#446230, #28ab6a);curved=0;strokeWidth=2;movable=1;resizable=1;rotatable=1;deletable=1;editable=1;locked=0;connectable=1;" edge="1" parent="1">
          <mxGeometry relative="1" as="geometry">
            <mxPoint x="367.5" y="522" as="sourcePoint" />
            <mxPoint x="412.5" y="522" as="targetPoint" />
          </mxGeometry>
        </mxCell>
        <mxCell id="xP_yPdAVMFIrfx9YmtCY-44" value="" style="group;movable=1;resizable=1;rotatable=1;deletable=1;editable=1;locked=0;connectable=1;" vertex="1" connectable="0" parent="1">
          <mxGeometry x="535.5" y="192" width="135" height="130" as="geometry" />
        </mxCell>
        <mxCell id="xP_yPdAVMFIrfx9YmtCY-45" value="" style="group;movable=1;resizable=1;rotatable=1;deletable=1;editable=1;locked=0;connectable=1;" vertex="1" connectable="0" parent="xP_yPdAVMFIrfx9YmtCY-44">
          <mxGeometry y="60" width="130" height="60" as="geometry" />
        </mxCell>
        <mxCell id="xP_yPdAVMFIrfx9YmtCY-46" value="&lt;font style=&quot;font-size: 10px;&quot; face=&quot;Times New Roman&quot;&gt;Human wants to have a coffee&lt;/font&gt;" style="whiteSpace=wrap;html=1;shape=mxgraph.basic.cloud_callout;strokeColor=light-dark(#000000,#319EFF);fillColor=light-dark(#bdd7ee, #1e4a76);movable=1;resizable=1;rotatable=1;deletable=1;editable=1;locked=0;connectable=1;" vertex="1" parent="xP_yPdAVMFIrfx9YmtCY-45">
          <mxGeometry x="5" width="120" height="39.99999999999999" as="geometry" />
        </mxCell>
        <mxCell id="xP_yPdAVMFIrfx9YmtCY-47" value="&lt;font style=&quot;font-size: 10px;&quot; face=&quot;Times New Roman&quot;&gt;&lt;b style=&quot;&quot;&gt;推理意图&lt;/b&gt;&lt;/font&gt;" style="text;html=1;align=center;verticalAlign=middle;resizable=1;points=[];autosize=1;strokeColor=none;fillColor=none;movable=1;rotatable=1;deletable=1;editable=1;locked=0;connectable=1;" vertex="1" parent="xP_yPdAVMFIrfx9YmtCY-45">
          <mxGeometry x="36" y="31" width="58" height="26" as="geometry" />
        </mxCell>
        <mxCell id="xP_yPdAVMFIrfx9YmtCY-48" value="" style="group;movable=1;resizable=1;rotatable=1;deletable=1;editable=1;locked=0;connectable=1;" vertex="1" connectable="0" parent="1">
          <mxGeometry x="315" y="423" width="150" height="78" as="geometry" />
        </mxCell>
        <mxCell id="xP_yPdAVMFIrfx9YmtCY-49" value="" style="sketch=0;outlineConnect=0;fontColor=light-dark(#548235, #69c195);gradientColor=none;fillColor=light-dark(#548235, #6fc76f);strokeColor=none;dashed=0;verticalLabelPosition=bottom;verticalAlign=top;align=center;html=1;fontSize=12;fontStyle=0;aspect=fixed;pointerEvents=1;shape=mxgraph.aws4.gear;strokeWidth=2;movable=1;resizable=1;rotatable=1;deletable=1;editable=1;locked=0;connectable=1;" vertex="1" parent="xP_yPdAVMFIrfx9YmtCY-48">
          <mxGeometry x="51" width="40" height="40" as="geometry" />
        </mxCell>
        <mxCell id="xP_yPdAVMFIrfx9YmtCY-50" style="edgeStyle=orthogonalEdgeStyle;rounded=1;orthogonalLoop=1;jettySize=auto;html=1;fillColor=#1ba1e2;strokeColor=light-dark(#33531e, #28ab6a);curved=0;horizontal=1;strokeWidth=2;movable=1;resizable=1;rotatable=1;deletable=1;editable=1;locked=0;connectable=1;" edge="1" parent="xP_yPdAVMFIrfx9YmtCY-48">
          <mxGeometry relative="1" as="geometry">
            <mxPoint x="71" y="68" as="sourcePoint" />
            <mxPoint x="70.70999999999998" y="93" as="targetPoint" />
            <Array as="points">
              <mxPoint x="70.70999999999998" y="83" />
              <mxPoint x="70.70999999999998" y="83" />
            </Array>
          </mxGeometry>
        </mxCell>
        <mxCell id="xP_yPdAVMFIrfx9YmtCY-51" value="&lt;font face=&quot;Times New Roman&quot;&gt;&lt;b&gt;意图更正&lt;/b&gt;&lt;/font&gt;" style="text;html=1;align=center;verticalAlign=middle;resizable=1;points=[];autosize=1;strokeColor=none;fillColor=none;fontSize=10;movable=1;rotatable=1;deletable=1;editable=1;locked=0;connectable=1;" vertex="1" parent="1">
          <mxGeometry x="358" y="464" width="58" height="24" as="geometry" />
        </mxCell>
        <mxCell id="xP_yPdAVMFIrfx9YmtCY-52" value="" style="shape=actor;whiteSpace=wrap;html=1;strokeWidth=1;movable=1;resizable=1;rotatable=1;deletable=1;editable=1;locked=0;connectable=1;" vertex="1" parent="1">
          <mxGeometry x="150" y="221" width="26" height="35" as="geometry" />
        </mxCell>
        <mxCell id="xP_yPdAVMFIrfx9YmtCY-53" value="&lt;font style=&quot;font-size: 10px;&quot; face=&quot;Times New Roman&quot;&gt;I&#39;m sleepy&lt;/font&gt;" style="whiteSpace=wrap;html=1;shape=mxgraph.basic.roundRectCallout;dx=29.74;dy=11;size=5;boundedLbl=1;strokeWidth=1;movable=1;resizable=1;rotatable=1;deletable=1;editable=1;locked=0;connectable=1;" vertex="1" parent="1">
          <mxGeometry x="179" y="220" width="54" height="36" as="geometry" />
        </mxCell>
        <mxCell id="xP_yPdAVMFIrfx9YmtCY-54" value="&lt;font style=&quot;font-size: 10px;&quot;&gt;&lt;b&gt;用户对话&lt;/b&gt;&lt;/font&gt;" style="text;html=1;align=center;verticalAlign=middle;resizable=1;points=[];autosize=1;strokeColor=none;fillColor=none;movable=1;rotatable=1;deletable=1;editable=1;locked=0;connectable=1;" vertex="1" parent="1">
          <mxGeometry x="157" y="251" width="58" height="26" as="geometry" />
        </mxCell>
        <mxCell id="xP_yPdAVMFIrfx9YmtCY-55" value="&lt;b&gt;&lt;font style=&quot;font-size: 10px;&quot; face=&quot;Times New Roman&quot;&gt;意图完成评估&lt;/font&gt;&lt;/b&gt;" style="text;html=1;align=center;verticalAlign=middle;resizable=1;points=[];autosize=1;strokeColor=none;fillColor=none;movable=1;rotatable=1;deletable=1;editable=1;locked=0;connectable=1;" vertex="1" parent="1">
          <mxGeometry x="408.1" y="246.03" width="78" height="26" as="geometry" />
        </mxCell>
        <mxCell id="xP_yPdAVMFIrfx9YmtCY-56" value="&lt;b&gt;&lt;font style=&quot;font-size: 10px;&quot; face=&quot;Times New Roman&quot;&gt;意图完成状态&lt;/font&gt;&lt;/b&gt;" style="text;html=1;align=center;verticalAlign=middle;resizable=1;points=[];autosize=1;strokeColor=none;fillColor=none;movable=1;rotatable=1;deletable=1;editable=1;locked=0;connectable=1;" vertex="1" parent="1">
          <mxGeometry x="568" y="364" width="78" height="26" as="geometry" />
        </mxCell>
        <mxCell id="xP_yPdAVMFIrfx9YmtCY-60" value="" style="shape=flexArrow;endArrow=none;html=1;rounded=0;exitX=0.497;exitY=0.93;exitDx=0;exitDy=0;exitPerimeter=0;entryX=0.006;entryY=0.554;entryDx=0;entryDy=0;entryPerimeter=0;fillColor=#f5f5f5;strokeColor=#666666;edgeStyle=orthogonalEdgeStyle;startArrow=block;startFill=0;movable=1;resizable=1;rotatable=1;deletable=1;editable=1;locked=0;connectable=1;" edge="1" parent="1">
          <mxGeometry width="50" height="50" relative="1" as="geometry">
            <mxPoint x="247.37799999999996" y="509.5559999999999" as="sourcePoint" />
            <mxPoint x="188.996" y="272.0299999999999" as="targetPoint" />
          </mxGeometry>
        </mxCell>
        <mxCell id="xP_yPdAVMFIrfx9YmtCY-61" value="" style="shape=flexArrow;endArrow=classic;html=1;rounded=0;fillColor=#f5f5f5;strokeColor=#666666;movable=1;resizable=1;rotatable=1;deletable=1;editable=1;locked=0;connectable=1;" edge="1" parent="1">
          <mxGeometry width="50" height="50" relative="1" as="geometry">
            <mxPoint x="190" y="326" as="sourcePoint" />
            <mxPoint x="250" y="326" as="targetPoint" />
          </mxGeometry>
        </mxCell>
        <mxCell id="xP_yPdAVMFIrfx9YmtCY-62" value="" style="rounded=0;whiteSpace=wrap;html=1;fillColor=#f5f5f5;fontColor=#333333;strokeColor=none;movable=1;resizable=1;rotatable=1;deletable=1;editable=1;locked=0;connectable=1;" vertex="1" parent="1">
          <mxGeometry x="189" y="319" width="4.6" height="14" as="geometry" />
        </mxCell>
        <mxCell id="xP_yPdAVMFIrfx9YmtCY-14" value="&lt;font style=&quot;font-size: 10px;&quot;&gt;&lt;font style=&quot;&quot; face=&quot;Times New Roman&quot;&gt;&lt;b style=&quot;&quot;&gt;大语言模型&lt;/b&gt;&lt;/font&gt;&lt;br&gt;&lt;/font&gt;&lt;div&gt;&lt;b&gt;&lt;font style=&quot;font-size: 10px;&quot; face=&quot;Times New Roman&quot;&gt;GPT-4o&lt;/font&gt;&lt;/b&gt;&lt;/div&gt;" style="text;html=1;align=center;verticalAlign=middle;resizable=1;points=[];autosize=1;strokeColor=none;fillColor=none;movable=1;rotatable=1;deletable=1;editable=1;locked=0;connectable=1;" vertex="1" parent="1">
          <mxGeometry x="411" y="350" width="68" height="41" as="geometry" />
        </mxCell>
        <mxCell id="xP_yPdAVMFIrfx9YmtCY-15" style="edgeStyle=orthogonalEdgeStyle;rounded=1;orthogonalLoop=1;jettySize=auto;html=1;fillColor=#1ba1e2;strokeColor=light-dark(#164673, #51afe7);curved=0;entryX=0.001;entryY=0.716;entryDx=0;entryDy=0;entryPerimeter=0;strokeWidth=2;movable=1;resizable=1;rotatable=1;deletable=1;editable=1;locked=0;connectable=1;" edge="1" parent="1">
          <mxGeometry relative="1" as="geometry">
            <mxPoint x="480" y="315" as="sourcePoint" />
            <mxPoint x="537" y="278" as="targetPoint" />
            <Array as="points">
              <mxPoint x="505" y="315" />
              <mxPoint x="505" y="278" />
            </Array>
          </mxGeometry>
        </mxCell>
        <mxCell id="xP_yPdAVMFIrfx9YmtCY-16" value="" style="curved=1;endArrow=classic;html=1;rounded=0;strokeWidth=2;strokeColor=light-dark(#164673, #ededed);movable=1;resizable=1;rotatable=1;deletable=1;editable=1;locked=0;connectable=1;" edge="1" parent="1">
          <mxGeometry width="50" height="50" relative="1" as="geometry">
            <mxPoint x="460" y="290" as="sourcePoint" />
            <mxPoint x="430" y="290" as="targetPoint" />
            <Array as="points">
              <mxPoint x="460" y="270" />
              <mxPoint x="430" y="270" />
            </Array>
          </mxGeometry>
        </mxCell>
      </root>
    </mxGraphModel>
  </diagram>
</mxfile>
